<?xml version="1.0" standalone="no"?>
<!DOCTYPE svg PUBLIC "-//W3C//DTD SVG 20010904//EN"
 "http://www.w3.org/TR/2001/REC-SVG-20010904/DTD/svg10.dtd">
<svg version="1.0" xmlns="http://www.w3.org/2000/svg"
 width="877.000000pt" height="1280.000000pt" viewBox="0 0 877.000000 1280.000000"
 preserveAspectRatio="xMidYMid meet">
<metadata>
Created by potrace 1.15, written by Peter Selinger 2001-2017
</metadata>
<g transform="translate(0.000000,1280.000000) scale(0.100000,-0.100000)"
fill="#576624" stroke="none">
<path d="M4295 12781 c-22 -10 -50 -29 -62 -42 -45 -50 -2798 -4166 -2812
-4204 -24 -69 5 -149 72 -199 28 -20 41 -21 505 -26 443 -5 480 -6 515 -24 85
-42 121 -160 75 -243 -13 -23 -471 -562 -1018 -1198 -547 -636 -1001 -1168
-1009 -1183 -18 -33 -18 -119 -1 -153 16 -30 59 -77 85 -92 15 -9 238 -13 822
-17 l801 -5 38 -30 c20 -17 45 -46 55 -65 24 -44 25 -136 3 -170 -9 -14 -538
-547 -1175 -1185 -820 -821 -1163 -1171 -1174 -1197 -27 -67 -16 -129 33 -182
56 -60 -67 -56 1882 -56 l1790 0 0 -1255 0 -1255 660 0 660 0 2 1252 3 1253
1805 5 c1342 4 1810 8 1825 17 75 43 114 151 84 230 -5 16 -522 541 -1183
1203 -1081 1083 -1174 1178 -1184 1219 -6 24 -9 48 -7 55 2 6 6 23 9 38 7 30
57 92 90 111 16 9 222 13 827 17 l805 5 37 25 c75 52 103 155 61 233 -10 20
-271 323 -579 674 -1279 1457 -1482 1691 -1494 1723 -34 98 26 212 127 240 23
6 209 10 488 10 l451 0 34 23 c70 47 102 130 77 203 -10 28 -2609 3921 -2807
4204 -40 58 -139 77 -216 41z"/>
</g>
</svg>
